#!OML:ASF F:\Work\Patient Classification 1\justin\Session 1\justin.ASF
:FULLY-SPECIFIED
:DEGREES
6998
root 0.500617 15.7128 9.03171 7.95248 -35.66 -18.5829
lowerback 18.2598 0.403336 -0.70428
upperback -0.254622 -0.0343002 -3.49758
thorax -10.5744 -0.108383 -3.42855
lowerneck -17.2948 1.35871 -12.2621
upperneck 11.7586 0.812485 25.8839
head 6.31548 1.91646 11.0682
rclavicle 6.89783e-014 4.77083e-014
rhumerus -39.6397 14.8698 -98.6733
rradius 125.535
rwrist -19.2154
rhand -11.7869 30.5517
rfingers 7.12502
rthumb 14.2624 1.0615
lclavicle 6.89783e-014 4.77083e-014
lhumerus -10.7047 42.9618 62.2615
lradius 68.2378
lwrist 62.7852
lhand -1.57953 17.4033
lfingers 7.12502
lthumb 24.0766 45.9128
rfemur 5.50166 2.98664 22.3455
rtibia 54.4034
rfoot -13.6319 10.0133
rtoes -11.9438
lfemur -40.3063 -0.458065 14.0139
ltibia 53.3387
lfoot -7.3999 -16.2843
ltoes -25.4173
6999
root 0.52085 15.7491 9.04777 8.27508 -35.6388 -18.866
lowerback 19.0851 0.252 -1.62091
upperback -0.473703 -0.413979 -3.01887
thorax -11.2996 -0.223002 -2.29075
lowerneck -16.9731 1.62439 -12.3852
upperneck 11.8021 1.17901 25.9654
head 6.18535 2.07631 11.1369
rclavicle 3.83654e-014 3.18055e-015
rhumerus -40.6324 15.9233 -98.486
rradius 125.886
rwrist -20.0229
rhand -11.7027 30.3057
rfingers 7.12502
rthumb 14.3435 0.821234
lclavicle 3.83654e-014 3.18055e-015
lhumerus -5.27595 41.9672 64.2301
lradius 70.3175
lwrist 62.5249
lhand -1.06908 16.7146
lfingers 7.12502
lthumb 24.566 45.1585
rfemur 5.06332 2.80224 22.4427
rtibia 54.6073
rfoot -12.7647 9.85352
rtoes -10.7529
lfemur -40.1362 -0.589348 14.1618
ltibia 52.8436
lfoot -7.91134 -16.2293
ltoes -27.9461
7000
root 0.541338 15.7972 9.03982 8.55178 -35.1322 -18.8325
lowerback 19.3593 0.0513875 -1.96476
upperback -0.142407 -0.775516 -3.15578
thorax -11.0906 -0.379032 -2.13899
lowerneck -17.4143 1.52891 -12.1054
upperneck 11.4249 1.00405 26.3444
head 6.20123 2.04076 11.2181
rclavicle -1.90833e-014 -2.8625e-014
rhumerus -40.4018 15.9429 -98.4521
rradius 126.102
rwrist -20.4242
rhand -11.5732 30.1007
rfingers 7.12502
rthumb 14.4682 0.625108
lclavicle -1.90833e-014 -2.8625e-014
lhumerus 1.55053 40.1947 66.492
lradius 72.0162
lwrist 61.7912
lhand -0.210706 16.0679
lfingers 7.12502
lthumb 25.3885 44.3975
rfemur 4.46532 2.08744 22.344
rtibia 54.7284
rfoot -12.1329 9.83435
rtoes -11.0976
lfemur -40.3912 -1.06722 14.1338
ltibia 52.2301
lfoot -8.04336 -16.0305
ltoes -29.1332
7001
root 0.56457 15.8402 9.01759 9.07163 -34.494 -19.1422
lowerback 19.8864 -0.201564 -2.17193
upperback 0.012079 -1.16386 -3.06742
thorax -11.2179 -0.546182 -1.81161
lowerneck -17.6541 1.45469 -12.2034
upperneck 11.1225 0.906119 26.9021
head 6.18136 2.02791 11.4464
rclavicle -7.55382e-014 -4.77083e-014
rhumerus -40.2829 16.0921 -98.2197
rradius 126.203
rwrist -20.5132
rhand -11.6375 30.2953
rfingers 7.12502
rthumb 14.4064 0.815297
lclavicle -7.55382e-014 -4.77083e-014
lhumerus 8.03307 38.3584 68.1276
lradius 73.3413
lwrist 61.113
lhand -0.0633287 14.7424
lfingers 7.12502
lthumb 25.5297 43.0518
rfemur 3.78532 1.46134 22.7185
rtibia 54.7453
rfoot -11.4486 9.50473
rtoes -11.4329
lfemur -40.7966 -1.46135 14.524
ltibia 51.5222
lfoot -7.81268 -16.097
ltoes -29.0734
7002
root 0.587844 15.8713 8.99741 9.66862 -33.8145 -19.5126
lowerback 20.4658 -0.515279 -2.44994
upperback 0.0639171 -1.63956 -2.85003
thorax -11.4798 -0.742487 -1.27045
lowerneck -17.5632 1.51401 -12.4688
upperneck 10.6118 1.05871 27.5132
head 5.97968 2.10471 11.7193
rclavicle 1.07344e-014 0
rhumerus -40.2079 16.559 -98.0095
rradius 126.182
rwrist -20.3371
rhand -11.5383 30.7815
rfingers 7.12502
rthumb 14.5019 1.30835
lclavicle 1.07344e-014 0
lhumerus 13.7867 36.6263 69.0376
lradius 74.8988
lwrist 60.219
lhand -0.674735 14.3233
lfingers 7.12502
lthumb 24.9439 42.7153
rfemur 3.21024 1.08526 23.2477
rtibia 54.678
rfoot -10.5965 8.95985
rtoes -9.65167
lfemur -41.253 -1.60624 14.9456
ltibia 50.7436
lfoot -7.34608 -16.3687
ltoes -28.6628
7003
root 0.611181 15.9069 8.98487 10.262 -33.192 -19.7798
lowerback 21.0265 -0.732131 -2.7148
upperback -0.0833219 -1.98176 -2.55251
thorax -11.9458 -0.867949 -0.681407
lowerneck -17.3092 1.4495 -12.3642
upperneck 10.4198 1.00648 27.1673
head 5.88612 2.03672 11.5301
rclavicle 6.36111e-015 2.54444e-014
rhumerus -40.6496 16.9272 -97.5399
rradius 126.357
rwrist -20.0145
rhand -11.2616 31.0889
rfingers 7.12502
rthumb 14.7685 1.63509
lclavicle 6.36111e-015 2.54444e-014
lhumerus 18.6787 35.1464 69.7678
lradius 77.1348
lwrist 59.5972
lhand -0.33528 15.3564
lfingers 7.12502
lthumb 25.2692 43.7029
rfemur 2.60839 0.711777 23.6013
rtibia 54.6525
rfoot -10.0369 8.7454
rtoes -8.40647
lfemur -41.6357 -1.62584 15.2071
ltibia 49.9036
lfoot -6.43104 -16.5519
ltoes -27.415
7004
root 0.63634 15.9522 8.96972 10.9679 -32.7422 -20.0859
lowerback 21.5757 -0.836591 -2.93813
upperback -0.449149 -2.15809 -2.13657
thorax -12.6504 -0.904373 -0.0273974
lowerneck -16.2705 1.4347 -13.3926
upperneck 9.86436 1.20823 27.6778
head 5.47099 2.04035 11.8704
rclavicle -4.13472e-014 3.18055e-015
rhumerus -41.5176 17.1996 -96.7971
rradius 126.545
rwrist -19.6042
rhand -10.8727 31.1246
rfingers 7.12502
rthumb 15.1431 1.69868
lclavicle -4.13472e-014 3.18055e-015
lhumerus 23.219 33.5738 70.2744
lradius 79.2888
lwrist 58.7238
lhand 0.58643 15.8306
lfingers 7.12502
lthumb 26.152 44.0495
rfemur 1.84333 0.228047 23.8435
rtibia 54.5238
rfoot -9.64384 8.95961
rtoes -9.71887
lfemur -42.0064 -1.72584 15.6021
ltibia 49.0957
lfoot -5.35676 -16.5216
ltoes -25.0139
